ffmpeg started on 2025-05-12 at 17:30:57
Report written to "D:\Convert\FFMetrics\reports\psnr_report-6.txt"
Log level: 32
Command line:
ffmpeg -hide_banner -nostdin -i "G:\\\xc0\xed\xe8\xec\xe5\\\xce\xed\xe3\xee\xe8\xed\xe3\xe8\\!_35_\xcb\xe5\xf2\xee_2024\\DreamCast\\\xce\xef\xe5\xf0\xe0\xf6\xe8\xff - \xd1\xe5\xec\xe5\xe9\xea\xe0 \xa8\xe4\xe7\xe0\xea\xf3\xf0\xe0\\[DC] Yozakura-san Chi no Daisakusen - 15_Telegram_HEVC.mkv" -i "G:\\\xc0\xed\xe8\xec\xe5\\\xce\xed\xe3\xee\xe8\xed\xe3\xe8\\!_35_\xcb\xe5\xf2\xee_2024\\DreamCast\\\xce\xef\xe5\xf0\xe0\xf6\xe8\xff - \xd1\xe5\xec\xe5\xe9\xea\xe0 \xa8\xe4\xe7\xe0\xea\xf3\xf0\xe0\\[DC] Yozakura-san Chi no Daisakusen - 15_Telegram.mp4" -lavfi "[0:v]settb=AVTB,setpts=PTS-STARTPTS,format=pix_fmts=yuv420p10,fps=24000/1001,scale=1920:1080:flags=bicubic[main];[1:v]settb=AVTB,setpts=PTS-STARTPTS,format=pix_fmts=yuv420p,fps=24000/1001,scale=1920:1080:flags=bicubic[ref];[main][ref]psnr=eof_action=endall:stats_file='D\\:/Convert/FFMetrics/logs/psnr_logfile-6.txt'" -f null -
Input #0, matroska,webm, from 'G:\Аниме\Онгоинги\!_35_Лето_2024\DreamCast\Операция - Семейка Ёдзакура\[DC] Yozakura-san Chi no Daisakusen - 15_Telegram_HEVC.mkv':
  Metadata:
    COMPATIBLE_BRANDS: isomiso2avc1mp41
    MAJOR_BRAND     : isom
    MINOR_VERSION   : 512
    ENCODER         : Lavf61.7.100
  Duration: 00:24:21.72, start: -0.021000, bitrate: 1928 kb/s
  Stream #0:0: Video: hevc (Main 10), yuv420p10le(tv, bt709, progressive), 1920x1080 [SAR 1:1 DAR 16:9], 23.98 fps, 23.98 tbr, 1k tbn (default)
      Metadata:
        HANDLER_NAME    : VideoHandler
        VENDOR_ID       : [0][0][0][0]
        ENCODER         : Lavc61.19.100 libx265
        BPS             : 1730207
        DURATION        : 00:24:21.626708333
        NUMBER_OF_FRAMES: 35044
        NUMBER_OF_BYTES : 316114532
        _STATISTICS_WRITING_APP: mkvpropedit v66.0.0 ('Josie') 64-bit
        _STATISTICS_WRITING_DATE_UTC: 2025-05-08 15:26:46
        _STATISTICS_TAGS: BPS DURATION NUMBER_OF_FRAMES NUMBER_OF_BYTES
  Stream #0:1: Audio: aac (LC), 48000 Hz, stereo, fltp (default)
      Metadata:
        HANDLER_NAME    : SoundHandler
        VENDOR_ID       : [0][0][0][0]
        ENCODER         : Lavc61.19.100 aac
        BPS             : 193844
        DURATION        : 00:24:21.717000000
        NUMBER_OF_FRAMES: 68519
        NUMBER_OF_BYTES : 35418287
        _STATISTICS_WRITING_APP: mkvpropedit v66.0.0 ('Josie') 64-bit
        _STATISTICS_WRITING_DATE_UTC: 2025-05-08 15:26:46
        _STATISTICS_TAGS: BPS DURATION NUMBER_OF_FRAMES NUMBER_OF_BYTES
Input #1, mov,mp4,m4a,3gp,3g2,mj2, from 'G:\Аниме\Онгоинги\!_35_Лето_2024\DreamCast\Операция - Семейка Ёдзакура\[DC] Yozakura-san Chi no Daisakusen - 15_Telegram.mp4':
  Metadata:
    major_brand     : isom
    minor_version   : 512
    compatible_brands: isomiso2avc1mp41
    encoder         : Lavf61.1.100
  Duration: 00:24:21.69, start: 0.000000, bitrate: 3867 kb/s
  Stream #1:0[0x1](und): Video: h264 (High) (avc1 / 0x31637661), yuv420p(tv, bt709, progressive), 1920x1080 [SAR 1:1 DAR 16:9], 3719 kb/s, 23.98 fps, 23.98 tbr, 24k tbn (default)
      Metadata:
        handler_name    : VideoHandler
        vendor_id       : [0][0][0][0]
        encoder         : Lavc61.3.100 h264_qsv
  Stream #1:1[0x2](und): Audio: aac (HE-AACv2) (mp4a / 0x6134706D), 48000 Hz, stereo, fltp, 144 kb/s (default)
      Metadata:
        handler_name    : SoundHandler
        vendor_id       : [0][0][0][0]
Stream mapping:
  Stream #0:0 (hevc) -> settb:default
  Stream #1:0 (h264) -> settb:default
  psnr:default -> Stream #0:0 (wrapped_avframe)
  Stream #0:1 -> #0:1 (aac (native) -> pcm_s16le (native))
Output #0, null, to 'pipe:':
  Metadata:
    COMPATIBLE_BRANDS: isomiso2avc1mp41
    MAJOR_BRAND     : isom
    MINOR_VERSION   : 512
    encoder         : Lavf61.7.100
  Stream #0:0: Video: wrapped_avframe, yuv420p10le(tv, bt709, progressive), 1920x1080 [SAR 1:1 DAR 16:9], q=2-31, 200 kb/s, 23.98 fps, 23.98 tbn
      Metadata:
        encoder         : Lavc61.19.100 wrapped_avframe
  Stream #0:1: Audio: pcm_s16le, 48000 Hz, stereo, s16, 1536 kb/s (default)
      Metadata:
        HANDLER_NAME    : SoundHandler
        VENDOR_ID       : [0][0][0][0]
        _STATISTICS_TAGS: BPS DURATION NUMBER_OF_FRAMES NUMBER_OF_BYTES
        BPS             : 193844
        DURATION        : 00:24:21.717000000
        NUMBER_OF_FRAMES: 68519
        NUMBER_OF_BYTES : 35418287
        _STATISTICS_WRITING_APP: mkvpropedit v66.0.0 ('Josie') 64-bit
        _STATISTICS_WRITING_DATE_UTC: 2025-05-08 15:26:46
        encoder         : Lavc61.19.100 pcm_s16le
frame=  166 fps=0.0 q=-0.0 size=N/A time=00:00:06.92 bitrate=N/A speed=13.2x    frame=  381 fps=370 q=-0.0 size=N/A time=00:00:15.89 bitrate=N/A speed=15.4x    frame=  663 fps=426 q=-0.0 size=N/A time=00:00:27.65 bitrate=N/A speed=17.8x    frame=  882 fps=428 q=-0.0 size=N/A time=00:00:36.78 bitrate=N/A speed=17.8x    frame= 1107 fps=428 q=-0.0 size=N/A time=00:00:46.17 bitrate=N/A speed=17.9x    frame= 1374 fps=444 q=-0.0 size=N/A time=00:00:57.30 bitrate=N/A speed=18.5x    frame= 1657 fps=459 q=-0.0 size=N/A time=00:01:09.11 bitrate=N/A speed=19.1x    frame= 1929 fps=468 q=-0.0 size=N/A time=00:01:20.45 bitrate=N/A speed=19.5x    frame= 2169 fps=467 q=-0.0 size=N/A time=00:01:30.46 bitrate=N/A speed=19.5x    frame= 2386 fps=462 q=-0.0 size=N/A time=00:01:39.51 bitrate=N/A speed=19.3x    frame= 2633 fps=464 q=-0.0 size=N/A time=00:01:49.81 bitrate=N/A speed=19.4x    frame= 2848 fps=460 q=-0.0 size=N/A time=00:01:58.78 bitrate=N/A speed=19.2x    frame= 3095 fps=461 q=-0.0 size=N/A time=00:02:09.08 bitrate=N/A speed=19.2x    frame= 3327 fps=461 q=-0.0 size=N/A time=00:02:18.76 bitrate=N/A speed=19.2x    frame= 3570 fps=461 q=-0.0 size=N/A time=00:02:28.89 bitrate=N/A speed=19.2x    frame= 3794 fps=459 q=-0.0 size=N/A time=00:02:38.24 bitrate=N/A speed=19.2x    frame= 4015 fps=457 q=-0.0 size=N/A time=00:02:47.45 bitrate=N/A speed=19.1x    frame= 4248 fps=456 q=-0.0 size=N/A time=00:02:57.17 bitrate=N/A speed=  19x    frame= 4454 fps=453 q=-0.0 size=N/A time=00:03:05.76 bitrate=N/A speed=18.9x    frame= 4679 fps=452 q=-0.0 size=N/A time=00:03:15.15 bitrate=N/A speed=18.9x    frame= 4918 fps=453 q=-0.0 size=N/A time=00:03:25.12 bitrate=N/A speed=18.9x    frame= 5141 fps=452 q=-0.0 size=N/A time=00:03:34.42 bitrate=N/A speed=18.8x    frame= 5369 fps=452 q=-0.0 size=N/A time=00:03:43.93 bitrate=N/A speed=18.8x    frame= 5580 fps=450 q=-0.0 size=N/A time=00:03:52.73 bitrate=N/A speed=18.8x    frame= 5812 fps=450 q=-0.0 size=N/A time=00:04:02.40 bitrate=N/A speed=18.7x    frame= 6039 fps=449 q=-0.0 size=N/A time=00:04:11.87 bitrate=N/A speed=18.7x    frame= 6233 fps=446 q=-0.0 size=N/A time=00:04:19.96 bitrate=N/A speed=18.6x    frame= 6459 fps=447 q=-0.0 size=N/A time=00:04:29.39 bitrate=N/A speed=18.6x    frame= 6671 fps=445 q=-0.0 size=N/A time=00:04:38.23 bitrate=N/A speed=18.6x    frame= 6858 fps=442 q=-0.0 size=N/A time=00:04:46.03 bitrate=N/A speed=18.4x    frame= 7019 fps=438 q=-0.0 size=N/A time=00:04:52.75 bitrate=N/A speed=18.3x    frame= 7180 fps=434 q=-0.0 size=N/A time=00:04:59.46 bitrate=N/A speed=18.1x    frame= 7342 fps=431 q=-0.0 size=N/A time=00:05:06.22 bitrate=N/A speed=  18x    frame= 7520 fps=428 q=-0.0 size=N/A time=00:05:13.64 bitrate=N/A speed=17.9x    frame= 7716 fps=427 q=-0.0 size=N/A time=00:05:21.82 bitrate=N/A speed=17.8x    frame= 7899 fps=425 q=-0.0 size=N/A time=00:05:29.45 bitrate=N/A speed=17.7x    frame= 8089 fps=423 q=-0.0 size=N/A time=00:05:37.37 bitrate=N/A speed=17.6x    frame= 8307 fps=423 q=-0.0 size=N/A time=00:05:46.47 bitrate=N/A speed=17.7x    frame= 8542 fps=424 q=-0.0 size=N/A time=00:05:56.27 bitrate=N/A speed=17.7x    frame= 8776 fps=425 q=-0.0 size=N/A time=00:06:06.03 bitrate=N/A speed=17.7x    frame= 9026 fps=426 q=-0.0 size=N/A time=00:06:16.45 bitrate=N/A speed=17.8x    frame= 9211 fps=425 q=-0.0 size=N/A time=00:06:24.17 bitrate=N/A speed=17.7x    frame= 9434 fps=425 q=-0.0 size=N/A time=00:06:33.47 bitrate=N/A speed=17.7x    frame= 9664 fps=425 q=-0.0 size=N/A time=00:06:43.06 bitrate=N/A speed=17.7x    frame= 9785 fps=421 q=-0.0 size=N/A time=00:06:48.11 bitrate=N/A speed=17.6x    frame= 9996 fps=421 q=-0.0 size=N/A time=00:06:56.91 bitrate=N/A speed=17.6x    frame=10223 fps=421 q=-0.0 size=N/A time=00:07:06.38 bitrate=N/A speed=17.6x    frame=10434 fps=421 q=-0.0 size=N/A time=00:07:15.18 bitrate=N/A speed=17.6x    frame=10659 fps=421 q=-0.0 size=N/A time=00:07:24.56 bitrate=N/A speed=17.6x    frame=10901 fps=422 q=-0.0 size=N/A time=00:07:34.66 bitrate=N/A speed=17.6x    frame=11143 fps=423 q=-0.0 size=N/A time=00:07:44.75 bitrate=N/A speed=17.7x    frame=11391 fps=424 q=-0.0 size=N/A time=00:07:55.09 bitrate=N/A speed=17.7x    frame=11622 fps=425 q=-0.0 size=N/A time=00:08:04.73 bitrate=N/A speed=17.7x    frame=11803 fps=423 q=-0.0 size=N/A time=00:08:12.28 bitrate=N/A speed=17.7x    frame=12041 fps=424 q=-0.0 size=N/A time=00:08:22.21 bitrate=N/A speed=17.7x    frame=12248 fps=424 q=-0.0 size=N/A time=00:08:30.84 bitrate=N/A speed=17.7x    frame=12487 fps=424 q=-0.0 size=N/A time=00:08:40.81 bitrate=N/A speed=17.7x    frame=12743 fps=426 q=-0.0 size=N/A time=00:08:51.48 bitrate=N/A speed=17.8x    frame=12950 fps=425 q=-0.0 size=N/A time=00:09:00.12 bitrate=N/A speed=17.7x    frame=13165 fps=425 q=-0.0 size=N/A time=00:09:09.09 bitrate=N/A speed=17.7x    frame=13394 fps=425 q=-0.0 size=N/A time=00:09:18.64 bitrate=N/A speed=17.7x    frame=13601 fps=425 q=-0.0 size=N/A time=00:09:27.27 bitrate=N/A speed=17.7x    frame=13754 fps=423 q=-0.0 size=N/A time=00:09:33.65 bitrate=N/A speed=17.6x    frame=14022 fps=424 q=-0.0 size=N/A time=00:09:44.83 bitrate=N/A speed=17.7x    frame=14266 fps=425 q=-0.0 size=N/A time=00:09:55.01 bitrate=N/A speed=17.7x    frame=14541 fps=427 q=-0.0 size=N/A time=00:10:06.48 bitrate=N/A speed=17.8x    frame=14770 fps=427 q=-0.0 size=N/A time=00:10:16.03 bitrate=N/A speed=17.8x    frame=15038 fps=428 q=-0.0 size=N/A time=00:10:27.20 bitrate=N/A speed=17.9x    frame=15306 fps=430 q=-0.0 size=N/A time=00:10:38.38 bitrate=N/A speed=17.9x    frame=15577 fps=431 q=-0.0 size=N/A time=00:10:49.69 bitrate=N/A speed=  18x    frame=15827 fps=432 q=-0.0 size=N/A time=00:11:00.11 bitrate=N/A speed=  18x    frame=16063 fps=432 q=-0.0 size=N/A time=00:11:09.96 bitrate=N/A speed=  18x    frame=16311 fps=433 q=-0.0 size=N/A time=00:11:20.30 bitrate=N/A speed=18.1x    frame=16518 fps=432 q=-0.0 size=N/A time=00:11:28.93 bitrate=N/A speed=  18x    frame=16731 fps=432 q=-0.0 size=N/A time=00:11:37.82 bitrate=N/A speed=  18x    frame=16991 fps=433 q=-0.0 size=N/A time=00:11:48.66 bitrate=N/A speed=18.1x    frame=17229 fps=433 q=-0.0 size=N/A time=00:11:58.59 bitrate=N/A speed=18.1x    frame=17485 fps=434 q=-0.0 size=N/A time=00:12:09.27 bitrate=N/A speed=18.1x    frame=17711 fps=434 q=-0.0 size=N/A time=00:12:18.69 bitrate=N/A speed=18.1x    frame=17930 fps=434 q=-0.0 size=N/A time=00:12:27.83 bitrate=N/A speed=18.1x    frame=18198 fps=435 q=-0.0 size=N/A time=00:12:39.00 bitrate=N/A speed=18.2x    frame=18451 fps=436 q=-0.0 size=N/A time=00:12:49.56 bitrate=N/A speed=18.2x    frame=18718 fps=437 q=-0.0 size=N/A time=00:13:00.69 bitrate=N/A speed=18.2x    frame=18985 fps=438 q=-0.0 size=N/A time=00:13:11.83 bitrate=N/A speed=18.3x    frame=19253 fps=439 q=-0.0 size=N/A time=00:13:23.01 bitrate=N/A speed=18.3x    frame=19507 fps=439 q=-0.0 size=N/A time=00:13:33.60 bitrate=N/A speed=18.3x    frame=19767 fps=440 q=-0.0 size=N/A time=00:13:44.44 bitrate=N/A speed=18.3x    frame=20045 fps=441 q=-0.0 size=N/A time=00:13:56.04 bitrate=N/A speed=18.4x    frame=20319 fps=442 q=-0.0 size=N/A time=00:14:07.47 bitrate=N/A speed=18.4x    frame=20565 fps=442 q=-0.0 size=N/A time=00:14:17.73 bitrate=N/A speed=18.5x    frame=20849 fps=444 q=-0.0 size=N/A time=00:14:29.57 bitrate=N/A speed=18.5x    frame=21092 fps=444 q=-0.0 size=N/A time=00:14:39.71 bitrate=N/A speed=18.5x    frame=21365 fps=445 q=-0.0 size=N/A time=00:14:51.09 bitrate=N/A speed=18.6x    frame=21612 fps=445 q=-0.0 size=N/A time=00:15:01.40 bitrate=N/A speed=18.6x    frame=21860 fps=446 q=-0.0 size=N/A time=00:15:11.74 bitrate=N/A speed=18.6x    frame=22096 fps=446 q=-0.0 size=N/A time=00:15:21.58 bitrate=N/A speed=18.6x    frame=22343 fps=446 q=-0.0 size=N/A time=00:15:31.88 bitrate=N/A speed=18.6x    frame=22534 fps=445 q=-0.0 size=N/A time=00:15:39.85 bitrate=N/A speed=18.6x    frame=22708 fps=444 q=-0.0 size=N/A time=00:15:47.11 bitrate=N/A speed=18.5x    frame=22937 fps=444 q=-0.0 size=N/A time=00:15:56.66 bitrate=N/A speed=18.5x    frame=23137 fps=443 q=-0.0 size=N/A time=00:16:05.00 bitrate=N/A speed=18.5x    frame=23372 fps=444 q=-0.0 size=N/A time=00:16:14.80 bitrate=N/A speed=18.5x    frame=23620 fps=444 q=-0.0 size=N/A time=00:16:25.15 bitrate=N/A speed=18.5x    frame=23844 fps=444 q=-0.0 size=N/A time=00:16:34.49 bitrate=N/A speed=18.5x    frame=24066 fps=444 q=-0.0 size=N/A time=00:16:43.75 bitrate=N/A speed=18.5x    frame=24266 fps=443 q=-0.0 size=N/A time=00:16:52.09 bitrate=N/A speed=18.5x    frame=24498 fps=443 q=-0.0 size=N/A time=00:17:01.77 bitrate=N/A speed=18.5x    frame=24668 fps=442 q=-0.0 size=N/A time=00:17:08.86 bitrate=N/A speed=18.4x    frame=24854 fps=441 q=-0.0 size=N/A time=00:17:16.61 bitrate=N/A speed=18.4x    frame=25046 fps=441 q=-0.0 size=N/A time=00:17:24.62 bitrate=N/A speed=18.4x    frame=25250 fps=440 q=-0.0 size=N/A time=00:17:33.13 bitrate=N/A speed=18.4x    frame=25421 fps=440 q=-0.0 size=N/A time=00:17:40.26 bitrate=N/A speed=18.3x    frame=25598 fps=439 q=-0.0 size=N/A time=00:17:47.64 bitrate=N/A speed=18.3x    frame=25780 fps=438 q=-0.0 size=N/A time=00:17:55.24 bitrate=N/A speed=18.3x    frame=25986 fps=437 q=-0.0 size=N/A time=00:18:03.83 bitrate=N/A speed=18.2x    frame=26148 fps=437 q=-0.0 size=N/A time=00:18:10.58 bitrate=N/A speed=18.2x    frame=26397 fps=437 q=-0.0 size=N/A time=00:18:20.97 bitrate=N/A speed=18.2x    frame=26593 fps=436 q=-0.0 size=N/A time=00:18:29.14 bitrate=N/A speed=18.2x    frame=26791 fps=436 q=-0.0 size=N/A time=00:18:37.40 bitrate=N/A speed=18.2x    frame=27007 fps=436 q=-0.0 size=N/A time=00:18:46.41 bitrate=N/A speed=18.2x    frame=27202 fps=435 q=-0.0 size=N/A time=00:18:54.55 bitrate=N/A speed=18.2x    frame=27354 fps=434 q=-0.0 size=N/A time=00:19:00.88 bitrate=N/A speed=18.1x    frame=27547 fps=434 q=-0.0 size=N/A time=00:19:08.93 bitrate=N/A speed=18.1x    frame=27730 fps=433 q=-0.0 size=N/A time=00:19:16.57 bitrate=N/A speed=18.1x    frame=27923 fps=433 q=-0.0 size=N/A time=00:19:24.62 bitrate=N/A speed=  18x    frame=28118 fps=432 q=-0.0 size=N/A time=00:19:32.75 bitrate=N/A speed=  18x    frame=28294 fps=431 q=-0.0 size=N/A time=00:19:40.09 bitrate=N/A speed=  18x    frame=28502 fps=431 q=-0.0 size=N/A time=00:19:48.77 bitrate=N/A speed=  18x    frame=28685 fps=431 q=-0.0 size=N/A time=00:19:56.40 bitrate=N/A speed=  18x    frame=28867 fps=430 q=-0.0 size=N/A time=00:20:03.99 bitrate=N/A speed=17.9x    frame=29089 fps=430 q=-0.0 size=N/A time=00:20:13.25 bitrate=N/A speed=17.9x    frame=29244 fps=429 q=-0.0 size=N/A time=00:20:19.71 bitrate=N/A speed=17.9x    frame=29470 fps=429 q=-0.0 size=N/A time=00:20:29.14 bitrate=N/A speed=17.9x    frame=29678 fps=429 q=-0.0 size=N/A time=00:20:37.81 bitrate=N/A speed=17.9x    frame=29867 fps=428 q=-0.0 size=N/A time=00:20:45.70 bitrate=N/A speed=17.9x    frame=30082 fps=428 q=-0.0 size=N/A time=00:20:54.67 bitrate=N/A speed=17.9x    frame=30293 fps=428 q=-0.0 size=N/A time=00:21:03.47 bitrate=N/A speed=17.9x    frame=30539 fps=429 q=-0.0 size=N/A time=00:21:13.73 bitrate=N/A speed=17.9x    frame=30748 fps=428 q=-0.0 size=N/A time=00:21:22.44 bitrate=N/A speed=17.9x    frame=30988 fps=429 q=-0.0 size=N/A time=00:21:32.45 bitrate=N/A speed=17.9x    frame=31213 fps=429 q=-0.0 size=N/A time=00:21:41.84 bitrate=N/A speed=17.9x    frame=31455 fps=429 q=-0.0 size=N/A time=00:21:51.93 bitrate=N/A speed=17.9x    frame=31643 fps=428 q=-0.0 size=N/A time=00:21:59.77 bitrate=N/A speed=17.9x    frame=31841 fps=428 q=-0.0 size=N/A time=00:22:08.03 bitrate=N/A speed=17.9x    frame=32044 fps=428 q=-0.0 size=N/A time=00:22:16.50 bitrate=N/A speed=17.8x    frame=32298 fps=428 q=-0.0 size=N/A time=00:22:27.09 bitrate=N/A speed=17.9x    frame=32556 fps=429 q=-0.0 size=N/A time=00:22:37.85 bitrate=N/A speed=17.9x    frame=32744 fps=428 q=-0.0 size=N/A time=00:22:45.69 bitrate=N/A speed=17.9x    frame=32883 fps=427 q=-0.0 size=N/A time=00:22:51.49 bitrate=N/A speed=17.8x    frame=33031 fps=426 q=-0.0 size=N/A time=00:22:57.66 bitrate=N/A speed=17.8x    frame=33240 fps=426 q=-0.0 size=N/A time=00:23:06.38 bitrate=N/A speed=17.8x    frame=33425 fps=426 q=-0.0 size=N/A time=00:23:14.10 bitrate=N/A speed=17.8x    frame=33599 fps=425 q=-0.0 size=N/A time=00:23:21.35 bitrate=N/A speed=17.7x    frame=33790 fps=425 q=-0.0 size=N/A time=00:23:29.32 bitrate=N/A speed=17.7x    frame=34016 fps=425 q=-0.0 size=N/A time=00:23:38.75 bitrate=N/A speed=17.7x    frame=34189 fps=424 q=-0.0 size=N/A time=00:23:45.96 bitrate=N/A speed=17.7x    frame=34340 fps=424 q=-0.0 size=N/A time=00:23:52.26 bitrate=N/A speed=17.7x    frame=34489 fps=423 q=-0.0 size=N/A time=00:23:58.47 bitrate=N/A speed=17.6x    frame=34640 fps=422 q=-0.0 size=N/A time=00:24:04.77 bitrate=N/A speed=17.6x    frame=34816 fps=421 q=-0.0 size=N/A time=00:24:12.11 bitrate=N/A speed=17.6x    frame=35015 fps=421 q=-0.0 size=N/A time=00:24:20.41 bitrate=N/A speed=17.6x    [Parsed_psnr_10 @ 0000018ed3bb2d00] PSNR y:46.844254 u:50.690349 v:50.587819 average:47.781991 min:38.333686 max:inf
[out#0/null @ 0000018ec6b467c0] video:15058KiB audio:274076KiB subtitle:0KiB other streams:0KiB global headers:0KiB muxing overhead: unknown
frame=35044 fps=421 q=-0.0 Lsize=N/A time=00:24:21.62 bitrate=N/A speed=17.6x    
